<svg xmlns="http://www.w3.org/2000/svg" width="1500" viewBox="0 0 2725.547 1224.582">
  <g id="background" transform="translate(13151.547 -1244.925)" opacity="0.2">
    <path id="Path_69" data-name="Path 69" d="M-13325.485-752.1a16.045,16.045,0,0,1-15.869-16.182v-23.343a33.479,33.479,0,0,0-11.3-24.936,46.676,46.676,0,0,1-15.54-35,46.369,46.369,0,0,1,13.577-32.794,44.578,44.578,0,0,1,32.388-13.332,44.664,44.664,0,0,1,31.674,13.752,46.456,46.456,0,0,1,13.09,32.515,46.645,46.645,0,0,1-15.755,35.052,33.253,33.253,0,0,0-11.08,25.044v23.044a16.045,16.045,0,0,1-15.865,16.182Zm0-6.516h5.323a9.507,9.507,0,0,0,8.956-6.516h-23.239A9.509,9.509,0,0,0-13325.485-758.62Zm-9.48-13.033h24.28v-4.792h-24.28Zm0-11.309h24.28v-4.792h-24.28Zm10.444-66.615a12.483,12.483,0,0,1,12.344,12.592v5.044a10.539,10.539,0,0,1-4.3,8.523v10.711c0,.013,0,.027,0,.044a9.832,9.832,0,0,1,3.236,7.313v11.08h2.662a39.629,39.629,0,0,1,13.194-27.04,40.072,40.072,0,0,0,13.536-30.118c0-21.633-17.254-39.464-38.459-39.747a38.286,38.286,0,0,0-27.82,11.46,39.839,39.839,0,0,0-11.672,28.169,40.1,40.1,0,0,0,13.355,30.071,40.133,40.133,0,0,1,13.393,27.2h2.645v-11.08a9.694,9.694,0,0,1,9.545-9.773v-6.332h-2.121a8.586,8.586,0,0,1-8.489-8.66,8.586,8.586,0,0,1,8.489-8.66,8.421,8.421,0,0,1,6.419,2.988v-1.2a6.023,6.023,0,0,0-5.955-6.076h-5.757a3.228,3.228,0,0,1-3.2-3.256,3.228,3.228,0,0,1,3.2-3.26Zm-1.5,44.227v11.08h6.389v-11.08a3.229,3.229,0,0,0-3.192-3.257A3.23,3.23,0,0,0-13326.021-805.351Zm-1.065-24.765a2.126,2.126,0,0,0,2.1,2.144h2.121V-830.1a2.145,2.145,0,0,0-2.121-2.164A2.126,2.126,0,0,0-13327.086-830.116Zm46.254,26.153-6.665-6.668a3.5,3.5,0,0,1,0-4.937,3.49,3.49,0,0,1,4.938,0l6.664,6.664a3.493,3.493,0,0,1,0,4.94,3.489,3.489,0,0,1-2.467,1.022A3.494,3.494,0,0,1-13280.832-803.963Zm-88.924,0a3.493,3.493,0,0,1,0-4.94l6.664-6.664a3.488,3.488,0,0,1,4.937,0,3.489,3.489,0,0,1,0,4.937l-6.664,6.668a3.485,3.485,0,0,1-2.467,1.022A3.494,3.494,0,0,1-13369.756-803.963Zm71.267-47.245a25.642,25.642,0,0,0-13.171-22.389,3.493,3.493,0,0,1-1.351-4.749,3.49,3.49,0,0,1,4.748-1.354,32.642,32.642,0,0,1,16.757,28.492,3.491,3.491,0,0,1-3.492,3.492A3.491,3.491,0,0,1-13298.489-851.207Zm30.861,2.406a3.487,3.487,0,0,1-3.488-3.488,3.488,3.488,0,0,1,3.488-3.492h9.427a3.491,3.491,0,0,1,3.491,3.492,3.49,3.49,0,0,1-3.491,3.488Zm-119.822,0a3.49,3.49,0,0,1-3.491-3.488,3.491,3.491,0,0,1,3.491-3.492h9.427a3.492,3.492,0,0,1,3.492,3.492,3.491,3.491,0,0,1-3.492,3.488Zm65.244-27.332h-.054a3.507,3.507,0,0,1-3.468-3.532,3.481,3.481,0,0,1,3.515-3.451h.054a3.5,3.5,0,0,1,3.465,3.532,3.473,3.473,0,0,1-3.471,3.451Zm34.709-11.527a3.5,3.5,0,0,1,0-4.937l6.665-6.664a3.5,3.5,0,0,1,4.939,0,3.5,3.5,0,0,1,0,4.94l-6.667,6.664a3.471,3.471,0,0,1-2.467,1.025A3.485,3.485,0,0,1-13287.5-887.661Zm-75.595,0-6.668-6.664a3.5,3.5,0,0,1,0-4.94,3.5,3.5,0,0,1,4.94,0l6.664,6.668a3.489,3.489,0,0,1,0,4.937,3.473,3.473,0,0,1-2.467,1.022A3.481,3.481,0,0,1-13363.092-887.661Zm36.776-19.868v-9.427a3.491,3.491,0,0,1,3.491-3.492,3.492,3.492,0,0,1,3.492,3.492v9.427a3.492,3.492,0,0,1-3.492,3.492A3.491,3.491,0,0,1-13326.315-907.529Z" transform="translate(-24430.762 -1911.085) rotate(-166)" fill="#5371ff"/>
    <path id="Path_68" data-name="Path 68" d="M-13325.485-752.1a16.045,16.045,0,0,1-15.869-16.182v-23.343a33.479,33.479,0,0,0-11.3-24.936,46.676,46.676,0,0,1-15.54-35,46.369,46.369,0,0,1,13.577-32.794,44.578,44.578,0,0,1,32.388-13.332,44.664,44.664,0,0,1,31.674,13.752,46.456,46.456,0,0,1,13.09,32.515,46.645,46.645,0,0,1-15.755,35.052,33.253,33.253,0,0,0-11.08,25.044v23.044a16.045,16.045,0,0,1-15.865,16.182Zm0-6.516h5.323a9.507,9.507,0,0,0,8.956-6.516h-23.239A9.509,9.509,0,0,0-13325.485-758.62Zm-9.48-13.033h24.28v-4.792h-24.28Zm0-11.309h24.28v-4.792h-24.28Zm10.444-66.615a12.483,12.483,0,0,1,12.344,12.592v5.044a10.539,10.539,0,0,1-4.3,8.523v10.711c0,.013,0,.027,0,.044a9.832,9.832,0,0,1,3.236,7.313v11.08h2.662a39.629,39.629,0,0,1,13.194-27.04,40.072,40.072,0,0,0,13.536-30.118c0-21.633-17.254-39.464-38.459-39.747a38.286,38.286,0,0,0-27.82,11.46,39.839,39.839,0,0,0-11.672,28.169,40.1,40.1,0,0,0,13.355,30.071,40.133,40.133,0,0,1,13.393,27.2h2.645v-11.08a9.694,9.694,0,0,1,9.545-9.773v-6.332h-2.121a8.586,8.586,0,0,1-8.489-8.66,8.586,8.586,0,0,1,8.489-8.66,8.421,8.421,0,0,1,6.419,2.988v-1.2a6.023,6.023,0,0,0-5.955-6.076h-5.757a3.228,3.228,0,0,1-3.2-3.256,3.228,3.228,0,0,1,3.2-3.26Zm-1.5,44.227v11.08h6.389v-11.08a3.229,3.229,0,0,0-3.192-3.257A3.23,3.23,0,0,0-13326.021-805.351Zm-1.065-24.765a2.126,2.126,0,0,0,2.1,2.144h2.121V-830.1a2.145,2.145,0,0,0-2.121-2.164A2.126,2.126,0,0,0-13327.086-830.116Zm46.254,26.153-6.665-6.668a3.5,3.5,0,0,1,0-4.937,3.49,3.49,0,0,1,4.938,0l6.664,6.664a3.493,3.493,0,0,1,0,4.94,3.489,3.489,0,0,1-2.467,1.022A3.494,3.494,0,0,1-13280.832-803.963Zm-88.924,0a3.493,3.493,0,0,1,0-4.94l6.664-6.664a3.488,3.488,0,0,1,4.937,0,3.489,3.489,0,0,1,0,4.937l-6.664,6.668a3.485,3.485,0,0,1-2.467,1.022A3.494,3.494,0,0,1-13369.756-803.963Zm71.267-47.245a25.642,25.642,0,0,0-13.171-22.389,3.493,3.493,0,0,1-1.351-4.749,3.49,3.49,0,0,1,4.748-1.354,32.642,32.642,0,0,1,16.757,28.492,3.491,3.491,0,0,1-3.492,3.492A3.491,3.491,0,0,1-13298.489-851.207Zm30.861,2.406a3.487,3.487,0,0,1-3.488-3.488,3.488,3.488,0,0,1,3.488-3.492h9.427a3.491,3.491,0,0,1,3.491,3.492,3.49,3.49,0,0,1-3.491,3.488Zm-119.822,0a3.49,3.49,0,0,1-3.491-3.488,3.491,3.491,0,0,1,3.491-3.492h9.427a3.492,3.492,0,0,1,3.492,3.492,3.491,3.491,0,0,1-3.492,3.488Zm65.244-27.332h-.054a3.507,3.507,0,0,1-3.468-3.532,3.481,3.481,0,0,1,3.515-3.451h.054a3.5,3.5,0,0,1,3.465,3.532,3.473,3.473,0,0,1-3.471,3.451Zm34.709-11.527a3.5,3.5,0,0,1,0-4.937l6.665-6.664a3.5,3.5,0,0,1,4.939,0,3.5,3.5,0,0,1,0,4.94l-6.667,6.664a3.471,3.471,0,0,1-2.467,1.025A3.485,3.485,0,0,1-13287.5-887.661Zm-75.595,0-6.668-6.664a3.5,3.5,0,0,1,0-4.94,3.5,3.5,0,0,1,4.94,0l6.664,6.668a3.489,3.489,0,0,1,0,4.937,3.473,3.473,0,0,1-2.467,1.022A3.481,3.481,0,0,1-13363.092-887.661Zm36.776-19.868v-9.427a3.491,3.491,0,0,1,3.491-3.492,3.492,3.492,0,0,1,3.492,3.492v9.427a3.492,3.492,0,0,1-3.492,3.492A3.491,3.491,0,0,1-13326.315-907.529Z" transform="translate(-18518.602 12465.77) rotate(120)" fill="#5371ff"/>
    <path id="Path_67" data-name="Path 67" d="M-13325.485-752.1a16.045,16.045,0,0,1-15.869-16.182v-23.343a33.479,33.479,0,0,0-11.3-24.936,46.676,46.676,0,0,1-15.54-35,46.369,46.369,0,0,1,13.577-32.794,44.578,44.578,0,0,1,32.388-13.332,44.664,44.664,0,0,1,31.674,13.752,46.456,46.456,0,0,1,13.09,32.515,46.645,46.645,0,0,1-15.755,35.052,33.253,33.253,0,0,0-11.08,25.044v23.044a16.045,16.045,0,0,1-15.865,16.182Zm0-6.516h5.323a9.507,9.507,0,0,0,8.956-6.516h-23.239A9.509,9.509,0,0,0-13325.485-758.62Zm-9.48-13.033h24.28v-4.792h-24.28Zm0-11.309h24.28v-4.792h-24.28Zm10.444-66.615a12.483,12.483,0,0,1,12.344,12.592v5.044a10.539,10.539,0,0,1-4.3,8.523v10.711c0,.013,0,.027,0,.044a9.832,9.832,0,0,1,3.236,7.313v11.08h2.662a39.629,39.629,0,0,1,13.194-27.04,40.072,40.072,0,0,0,13.536-30.118c0-21.633-17.254-39.464-38.459-39.747a38.286,38.286,0,0,0-27.82,11.46,39.839,39.839,0,0,0-11.672,28.169,40.1,40.1,0,0,0,13.355,30.071,40.133,40.133,0,0,1,13.393,27.2h2.645v-11.08a9.694,9.694,0,0,1,9.545-9.773v-6.332h-2.121a8.586,8.586,0,0,1-8.489-8.66,8.586,8.586,0,0,1,8.489-8.66,8.421,8.421,0,0,1,6.419,2.988v-1.2a6.023,6.023,0,0,0-5.955-6.076h-5.757a3.228,3.228,0,0,1-3.2-3.256,3.228,3.228,0,0,1,3.2-3.26Zm-1.5,44.227v11.08h6.389v-11.08a3.229,3.229,0,0,0-3.192-3.257A3.23,3.23,0,0,0-13326.021-805.351Zm-1.065-24.765a2.126,2.126,0,0,0,2.1,2.144h2.121V-830.1a2.145,2.145,0,0,0-2.121-2.164A2.126,2.126,0,0,0-13327.086-830.116Zm46.254,26.153-6.665-6.668a3.5,3.5,0,0,1,0-4.937,3.49,3.49,0,0,1,4.938,0l6.664,6.664a3.493,3.493,0,0,1,0,4.94,3.489,3.489,0,0,1-2.467,1.022A3.494,3.494,0,0,1-13280.832-803.963Zm-88.924,0a3.493,3.493,0,0,1,0-4.94l6.664-6.664a3.488,3.488,0,0,1,4.937,0,3.489,3.489,0,0,1,0,4.937l-6.664,6.668a3.485,3.485,0,0,1-2.467,1.022A3.494,3.494,0,0,1-13369.756-803.963Zm71.267-47.245a25.642,25.642,0,0,0-13.171-22.389,3.493,3.493,0,0,1-1.351-4.749,3.49,3.49,0,0,1,4.748-1.354,32.642,32.642,0,0,1,16.757,28.492,3.491,3.491,0,0,1-3.492,3.492A3.491,3.491,0,0,1-13298.489-851.207Zm30.861,2.406a3.487,3.487,0,0,1-3.488-3.488,3.488,3.488,0,0,1,3.488-3.492h9.427a3.491,3.491,0,0,1,3.491,3.492,3.49,3.49,0,0,1-3.491,3.488Zm-119.822,0a3.49,3.49,0,0,1-3.491-3.488,3.491,3.491,0,0,1,3.491-3.492h9.427a3.492,3.492,0,0,1,3.492,3.492,3.491,3.491,0,0,1-3.492,3.488Zm65.244-27.332h-.054a3.507,3.507,0,0,1-3.468-3.532,3.481,3.481,0,0,1,3.515-3.451h.054a3.5,3.5,0,0,1,3.465,3.532,3.473,3.473,0,0,1-3.471,3.451Zm34.709-11.527a3.5,3.5,0,0,1,0-4.937l6.665-6.664a3.5,3.5,0,0,1,4.939,0,3.5,3.5,0,0,1,0,4.94l-6.667,6.664a3.471,3.471,0,0,1-2.467,1.025A3.485,3.485,0,0,1-13287.5-887.661Zm-75.595,0-6.668-6.664a3.5,3.5,0,0,1,0-4.94,3.5,3.5,0,0,1,4.94,0l6.664,6.668a3.489,3.489,0,0,1,0,4.937,3.473,3.473,0,0,1-2.467,1.022A3.481,3.481,0,0,1-13363.092-887.661Zm36.776-19.868v-9.427a3.491,3.491,0,0,1,3.491-3.492,3.492,3.492,0,0,1,3.492,3.492v9.427a3.492,3.492,0,0,1-3.492,3.492A3.491,3.491,0,0,1-13326.315-907.529Z" transform="translate(-11334.892 15104.878) rotate(83)" fill="#5371ff"/>
    <path id="Path_65" data-name="Path 65" d="M-13325.485-752.1a16.045,16.045,0,0,1-15.869-16.182v-23.343a33.479,33.479,0,0,0-11.3-24.936,46.676,46.676,0,0,1-15.54-35,46.369,46.369,0,0,1,13.577-32.794,44.578,44.578,0,0,1,32.388-13.332,44.664,44.664,0,0,1,31.674,13.752,46.456,46.456,0,0,1,13.09,32.515,46.645,46.645,0,0,1-15.755,35.052,33.253,33.253,0,0,0-11.08,25.044v23.044a16.045,16.045,0,0,1-15.865,16.182Zm0-6.516h5.323a9.507,9.507,0,0,0,8.956-6.516h-23.239A9.509,9.509,0,0,0-13325.485-758.62Zm-9.48-13.033h24.28v-4.792h-24.28Zm0-11.309h24.28v-4.792h-24.28Zm10.444-66.615a12.483,12.483,0,0,1,12.344,12.592v5.044a10.539,10.539,0,0,1-4.3,8.523v10.711c0,.013,0,.027,0,.044a9.832,9.832,0,0,1,3.236,7.313v11.08h2.662a39.629,39.629,0,0,1,13.194-27.04,40.072,40.072,0,0,0,13.536-30.118c0-21.633-17.254-39.464-38.459-39.747a38.286,38.286,0,0,0-27.82,11.46,39.839,39.839,0,0,0-11.672,28.169,40.1,40.1,0,0,0,13.355,30.071,40.133,40.133,0,0,1,13.393,27.2h2.645v-11.08a9.694,9.694,0,0,1,9.545-9.773v-6.332h-2.121a8.586,8.586,0,0,1-8.489-8.66,8.586,8.586,0,0,1,8.489-8.66,8.421,8.421,0,0,1,6.419,2.988v-1.2a6.023,6.023,0,0,0-5.955-6.076h-5.757a3.228,3.228,0,0,1-3.2-3.256,3.228,3.228,0,0,1,3.2-3.26Zm-1.5,44.227v11.08h6.389v-11.08a3.229,3.229,0,0,0-3.192-3.257A3.23,3.23,0,0,0-13326.021-805.351Zm-1.065-24.765a2.126,2.126,0,0,0,2.1,2.144h2.121V-830.1a2.145,2.145,0,0,0-2.121-2.164A2.126,2.126,0,0,0-13327.086-830.116Zm46.254,26.153-6.665-6.668a3.5,3.5,0,0,1,0-4.937,3.49,3.49,0,0,1,4.938,0l6.664,6.664a3.493,3.493,0,0,1,0,4.94,3.489,3.489,0,0,1-2.467,1.022A3.494,3.494,0,0,1-13280.832-803.963Zm-88.924,0a3.493,3.493,0,0,1,0-4.94l6.664-6.664a3.488,3.488,0,0,1,4.937,0,3.489,3.489,0,0,1,0,4.937l-6.664,6.668a3.485,3.485,0,0,1-2.467,1.022A3.494,3.494,0,0,1-13369.756-803.963Zm71.267-47.245a25.642,25.642,0,0,0-13.171-22.389,3.493,3.493,0,0,1-1.351-4.749,3.49,3.49,0,0,1,4.748-1.354,32.642,32.642,0,0,1,16.757,28.492,3.491,3.491,0,0,1-3.492,3.492A3.491,3.491,0,0,1-13298.489-851.207Zm30.861,2.406a3.487,3.487,0,0,1-3.488-3.488,3.488,3.488,0,0,1,3.488-3.492h9.427a3.491,3.491,0,0,1,3.491,3.492,3.49,3.49,0,0,1-3.491,3.488Zm-119.822,0a3.49,3.49,0,0,1-3.491-3.488,3.491,3.491,0,0,1,3.491-3.492h9.427a3.492,3.492,0,0,1,3.492,3.492,3.491,3.491,0,0,1-3.492,3.488Zm65.244-27.332h-.054a3.507,3.507,0,0,1-3.468-3.532,3.481,3.481,0,0,1,3.515-3.451h.054a3.5,3.5,0,0,1,3.465,3.532,3.473,3.473,0,0,1-3.471,3.451Zm34.709-11.527a3.5,3.5,0,0,1,0-4.937l6.665-6.664a3.5,3.5,0,0,1,4.939,0,3.5,3.5,0,0,1,0,4.94l-6.667,6.664a3.471,3.471,0,0,1-2.467,1.025A3.485,3.485,0,0,1-13287.5-887.661Zm-75.595,0-6.668-6.664a3.5,3.5,0,0,1,0-4.94,3.5,3.5,0,0,1,4.94,0l6.664,6.668a3.489,3.489,0,0,1,0,4.937,3.473,3.473,0,0,1-2.467,1.022A3.481,3.481,0,0,1-13363.092-887.661Zm36.776-19.868v-9.427a3.491,3.491,0,0,1,3.491-3.492,3.492,3.492,0,0,1,3.492,3.492v9.427a3.492,3.492,0,0,1-3.492,3.492A3.491,3.491,0,0,1-13326.315-907.529Z" transform="matrix(-0.819, -0.574, 0.574, -0.819, -23481.223, -6328.792)" fill="#5371ff"/>
    <path id="Path_64" data-name="Path 64" d="M-13325.485-752.1a16.045,16.045,0,0,1-15.869-16.182v-23.343a33.479,33.479,0,0,0-11.3-24.936,46.676,46.676,0,0,1-15.54-35,46.369,46.369,0,0,1,13.577-32.794,44.578,44.578,0,0,1,32.388-13.332,44.664,44.664,0,0,1,31.674,13.752,46.456,46.456,0,0,1,13.09,32.515,46.645,46.645,0,0,1-15.755,35.052,33.253,33.253,0,0,0-11.08,25.044v23.044a16.045,16.045,0,0,1-15.865,16.182Zm0-6.516h5.323a9.507,9.507,0,0,0,8.956-6.516h-23.239A9.509,9.509,0,0,0-13325.485-758.62Zm-9.48-13.033h24.28v-4.792h-24.28Zm0-11.309h24.28v-4.792h-24.28Zm10.444-66.615a12.483,12.483,0,0,1,12.344,12.592v5.044a10.539,10.539,0,0,1-4.3,8.523v10.711c0,.013,0,.027,0,.044a9.832,9.832,0,0,1,3.236,7.313v11.08h2.662a39.629,39.629,0,0,1,13.194-27.04,40.072,40.072,0,0,0,13.536-30.118c0-21.633-17.254-39.464-38.459-39.747a38.286,38.286,0,0,0-27.82,11.46,39.839,39.839,0,0,0-11.672,28.169,40.1,40.1,0,0,0,13.355,30.071,40.133,40.133,0,0,1,13.393,27.2h2.645v-11.08a9.694,9.694,0,0,1,9.545-9.773v-6.332h-2.121a8.586,8.586,0,0,1-8.489-8.66,8.586,8.586,0,0,1,8.489-8.66,8.421,8.421,0,0,1,6.419,2.988v-1.2a6.023,6.023,0,0,0-5.955-6.076h-5.757a3.228,3.228,0,0,1-3.2-3.256,3.228,3.228,0,0,1,3.2-3.26Zm-1.5,44.227v11.08h6.389v-11.08a3.229,3.229,0,0,0-3.192-3.257A3.23,3.23,0,0,0-13326.021-805.351Zm-1.065-24.765a2.126,2.126,0,0,0,2.1,2.144h2.121V-830.1a2.145,2.145,0,0,0-2.121-2.164A2.126,2.126,0,0,0-13327.086-830.116Zm46.254,26.153-6.665-6.668a3.5,3.5,0,0,1,0-4.937,3.49,3.49,0,0,1,4.938,0l6.664,6.664a3.493,3.493,0,0,1,0,4.94,3.489,3.489,0,0,1-2.467,1.022A3.494,3.494,0,0,1-13280.832-803.963Zm-88.924,0a3.493,3.493,0,0,1,0-4.94l6.664-6.664a3.488,3.488,0,0,1,4.937,0,3.489,3.489,0,0,1,0,4.937l-6.664,6.668a3.485,3.485,0,0,1-2.467,1.022A3.494,3.494,0,0,1-13369.756-803.963Zm71.267-47.245a25.642,25.642,0,0,0-13.171-22.389,3.493,3.493,0,0,1-1.351-4.749,3.49,3.49,0,0,1,4.748-1.354,32.642,32.642,0,0,1,16.757,28.492,3.491,3.491,0,0,1-3.492,3.492A3.491,3.491,0,0,1-13298.489-851.207Zm30.861,2.406a3.487,3.487,0,0,1-3.488-3.488,3.488,3.488,0,0,1,3.488-3.492h9.427a3.491,3.491,0,0,1,3.491,3.492,3.49,3.49,0,0,1-3.491,3.488Zm-119.822,0a3.49,3.49,0,0,1-3.491-3.488,3.491,3.491,0,0,1,3.491-3.492h9.427a3.492,3.492,0,0,1,3.492,3.492,3.491,3.491,0,0,1-3.492,3.488Zm65.244-27.332h-.054a3.507,3.507,0,0,1-3.468-3.532,3.481,3.481,0,0,1,3.515-3.451h.054a3.5,3.5,0,0,1,3.465,3.532,3.473,3.473,0,0,1-3.471,3.451Zm34.709-11.527a3.5,3.5,0,0,1,0-4.937l6.665-6.664a3.5,3.5,0,0,1,4.939,0,3.5,3.5,0,0,1,0,4.94l-6.667,6.664a3.471,3.471,0,0,1-2.467,1.025A3.485,3.485,0,0,1-13287.5-887.661Zm-75.595,0-6.668-6.664a3.5,3.5,0,0,1,0-4.94,3.5,3.5,0,0,1,4.94,0l6.664,6.668a3.489,3.489,0,0,1,0,4.937,3.473,3.473,0,0,1-2.467,1.022A3.481,3.481,0,0,1-13363.092-887.661Zm36.776-19.868v-9.427a3.491,3.491,0,0,1,3.491-3.492,3.492,3.492,0,0,1,3.492,3.492v9.427a3.492,3.492,0,0,1-3.492,3.492A3.491,3.491,0,0,1-13326.315-907.529Z" transform="translate(-22871.715 10226.147) rotate(135)" fill="#5371ff"/>
    <path id="Path_70" data-name="Path 70" d="M-13325.485-752.1a16.045,16.045,0,0,1-15.869-16.182v-23.343a33.479,33.479,0,0,0-11.3-24.936,46.676,46.676,0,0,1-15.54-35,46.369,46.369,0,0,1,13.577-32.794,44.578,44.578,0,0,1,32.388-13.332,44.664,44.664,0,0,1,31.674,13.752,46.456,46.456,0,0,1,13.09,32.515,46.645,46.645,0,0,1-15.755,35.052,33.253,33.253,0,0,0-11.08,25.044v23.044a16.045,16.045,0,0,1-15.865,16.182Zm0-6.516h5.323a9.507,9.507,0,0,0,8.956-6.516h-23.239A9.509,9.509,0,0,0-13325.485-758.62Zm-9.48-13.033h24.28v-4.792h-24.28Zm0-11.309h24.28v-4.792h-24.28Zm10.444-66.615a12.483,12.483,0,0,1,12.344,12.592v5.044a10.539,10.539,0,0,1-4.3,8.523v10.711c0,.013,0,.027,0,.044a9.832,9.832,0,0,1,3.236,7.313v11.08h2.662a39.629,39.629,0,0,1,13.194-27.04,40.072,40.072,0,0,0,13.536-30.118c0-21.633-17.254-39.464-38.459-39.747a38.286,38.286,0,0,0-27.82,11.46,39.839,39.839,0,0,0-11.672,28.169,40.1,40.1,0,0,0,13.355,30.071,40.133,40.133,0,0,1,13.393,27.2h2.645v-11.08a9.694,9.694,0,0,1,9.545-9.773v-6.332h-2.121a8.586,8.586,0,0,1-8.489-8.66,8.586,8.586,0,0,1,8.489-8.66,8.421,8.421,0,0,1,6.419,2.988v-1.2a6.023,6.023,0,0,0-5.955-6.076h-5.757a3.228,3.228,0,0,1-3.2-3.256,3.228,3.228,0,0,1,3.2-3.26Zm-1.5,44.227v11.08h6.389v-11.08a3.229,3.229,0,0,0-3.192-3.257A3.23,3.23,0,0,0-13326.021-805.351Zm-1.065-24.765a2.126,2.126,0,0,0,2.1,2.144h2.121V-830.1a2.145,2.145,0,0,0-2.121-2.164A2.126,2.126,0,0,0-13327.086-830.116Zm46.254,26.153-6.665-6.668a3.5,3.5,0,0,1,0-4.937,3.49,3.49,0,0,1,4.938,0l6.664,6.664a3.493,3.493,0,0,1,0,4.94,3.489,3.489,0,0,1-2.467,1.022A3.494,3.494,0,0,1-13280.832-803.963Zm-88.924,0a3.493,3.493,0,0,1,0-4.94l6.664-6.664a3.488,3.488,0,0,1,4.937,0,3.489,3.489,0,0,1,0,4.937l-6.664,6.668a3.485,3.485,0,0,1-2.467,1.022A3.494,3.494,0,0,1-13369.756-803.963Zm71.267-47.245a25.642,25.642,0,0,0-13.171-22.389,3.493,3.493,0,0,1-1.351-4.749,3.49,3.49,0,0,1,4.748-1.354,32.642,32.642,0,0,1,16.757,28.492,3.491,3.491,0,0,1-3.492,3.492A3.491,3.491,0,0,1-13298.489-851.207Zm30.861,2.406a3.487,3.487,0,0,1-3.488-3.488,3.488,3.488,0,0,1,3.488-3.492h9.427a3.491,3.491,0,0,1,3.491,3.492,3.49,3.49,0,0,1-3.491,3.488Zm-119.822,0a3.49,3.49,0,0,1-3.491-3.488,3.491,3.491,0,0,1,3.491-3.492h9.427a3.492,3.492,0,0,1,3.492,3.492,3.491,3.491,0,0,1-3.492,3.488Zm65.244-27.332h-.054a3.507,3.507,0,0,1-3.468-3.532,3.481,3.481,0,0,1,3.515-3.451h.054a3.5,3.5,0,0,1,3.465,3.532,3.473,3.473,0,0,1-3.471,3.451Zm34.709-11.527a3.5,3.5,0,0,1,0-4.937l6.665-6.664a3.5,3.5,0,0,1,4.939,0,3.5,3.5,0,0,1,0,4.94l-6.667,6.664a3.471,3.471,0,0,1-2.467,1.025A3.485,3.485,0,0,1-13287.5-887.661Zm-75.595,0-6.668-6.664a3.5,3.5,0,0,1,0-4.94,3.5,3.5,0,0,1,4.94,0l6.664,6.668a3.489,3.489,0,0,1,0,4.937,3.473,3.473,0,0,1-2.467,1.022A3.481,3.481,0,0,1-13363.092-887.661Zm36.776-19.868v-9.427a3.491,3.491,0,0,1,3.491-3.492,3.492,3.492,0,0,1,3.492,3.492v9.427a3.492,3.492,0,0,1-3.492,3.492A3.491,3.491,0,0,1-13326.315-907.529Z" transform="translate(-22302.715 11191.147) rotate(135)" fill="#5371ff"/>
  </g>
</svg>
