<svg xmlns="http://www.w3.org/2000/svg" viewBox="0 0 492.702 620.449">
  <g id="girl_in_chair" transform="translate(-1241 -997)">
    <g id="Group_14" data-name="Group 14" transform="translate(1474.056 1148)">
      <path id="Fill_1" data-name="Fill 1" d="M0,230.94v1.66c0,13.85,10.745,25.069,23.988,25.069h187.9c28.984,0,51.289-27.809,47.289-58.969L237.967,25.08C236.13,10.7,224.81,0,211.433,0H155.742c-13.368,0-24.687,10.7-26.535,25.08L107.993,198.7c-.162,1.24-.277,2.48-.345,3.71l-.114-.02s-3.924,28.55-40.4,28.55Z" transform="translate(0 0)" fill="#dceeff"/>
      <path id="Fill_4" data-name="Fill 4" d="M0,16.035A16.034,16.034,0,1,0,16.035,0,16.035,16.035,0,0,0,0,16.035" transform="translate(200.039 437.207)" fill="#b6d4ff"/>
      <path id="Fill_6" data-name="Fill 6" d="M11.035,22.071H169.5A11.036,11.036,0,0,0,169.5,0H11.035a11.036,11.036,0,0,0,0,22.071" transform="translate(42.688 434.386)" fill="#cce3ff"/>
      <path id="Fill_8" data-name="Fill 8" d="M16.262,194.208H0V0H16.262Z" transform="translate(124.822 257)" fill="#cce3ff"/>
      <path id="Fill_10" data-name="Fill 10" d="M0,0,55.721,25.376,111.441,0Z" transform="translate(77.232 257.001)" fill="#cce3ff"/>
      <path id="Fill_11" data-name="Fill 11" d="M11.035,22.071H31.6A11.036,11.036,0,1,0,31.6,0H11.035a11.036,11.036,0,0,0,0,22.071" transform="translate(120.686 434.386)" fill="#b6d4ff"/>
      <path id="Fill_12" data-name="Fill 12" d="M0,16.035A16.034,16.034,0,1,0,16.034,0,16.034,16.034,0,0,0,0,16.035" transform="translate(145.209 437.207)" fill="#b6d4ff"/>
      <path id="Fill_13" data-name="Fill 13" d="M0,16.035A16.034,16.034,0,1,0,16.035,0,16.035,16.035,0,0,0,0,16.035" transform="translate(32.736 437.207)" fill="#b6d4ff"/>
    </g>
    <g id="Person_Woman_3" data-name="Person / Woman / 3" transform="translate(1241 997)">
      <g id="Group_23" data-name="Group 23" transform="translate(266.906 0)">
        <path id="Hair" d="M117.742,30.4c37.707,5.26,21.909,48.689,11.311,72.138-12.44,27.524-1.543,45.978-1.543,45.978L185.8,127.824c-21.392-27.2,2.233-42.356-3.583-74.793-5.217-29.1-33.535-42.225-51.427-41.606a51.974,51.974,0,0,0-22.026,5.558q-.33.168-.63.359C97.56,6.488,82.929,0,66.019,0,31.244,0,0,27.437,0,63.868s28.19,65.964,62.966,65.964,62.966-29.533,62.966-65.964a69.494,69.494,0,0,0-8.19-33.465Z" transform="translate(0)" fill="#19141e"/>
        <path id="Fill_5" data-name="Fill 5" d="M0,2.628S12.931,3.01,18.442,0L.687,11.147Z" transform="translate(56.814 128.946)" fill="#cf3e83"/>
        <g id="Face_color" data-name="Face color" transform="translate(8.609 48.061)">
          <path id="Face" d="M0,34.777c1.939,15,6.969,36.144,19.388,44.4,6.59,4.38,18.59,4.92,28.82,4.33l2.34,29.05,33.38-13.74s-3.21-32.06-4.6-44.35c6.71-6.08,18.141-8.9,18.161-19.23,0-3.58-2.09-9.77-9.81-9.79-10.36-.01-8.88,12.41-8.88,12.41a5.357,5.357,0,0,1-3.854.012C64.686,37.445,36.153,33.149,16.753,0,14.489,11.158,9.783,25.067,0,34.777Z" transform="translate(0 0)" fill="#ffdbbf"/>
        </g>
        <path id="Fill_9" data-name="Fill 9" d="M7.4,0,0,17.94l8.585-.172Z" transform="translate(21.305 85.893)" fill="#0d0b6d"/>
        <path id="Fill_11-2" data-name="Fill 11" d="M.013,6.746C.2,10.33,2.305,13.122,4.721,12.983s4.225-3.157,4.04-6.741S6.469-.134,4.053,0-.172,3.163.013,6.746" transform="translate(36.571 79.925)" fill="#0d0b6d"/>
        <path id="Fill_13-2" data-name="Fill 13" d="M.013,6.747C.2,10.331,2.3,13.123,4.721,12.984S8.946,9.827,8.762,6.243,6.47-.134,4.054,0-.171,3.163.013,6.747" transform="translate(13.884 79.352)" fill="#0d0b6d"/>
        <path id="Stroke_15" data-name="Stroke 15" d="M0,4.427S5.594,6.233,11.2,0" transform="translate(31.996 107.827)" fill="none" stroke="#1c295e" stroke-miterlimit="10" stroke-width="3"/>
        <path id="Fill_17" data-name="Fill 17" d="M0,2.629S12.93,3.011,18.442,0L.687,11.147Z" transform="translate(56.836 128.945)" opacity="0.403"/>
      </g>
      <g id="Group_24" data-name="Group 24" transform="translate(215.909 126)">
        <path id="Fill_6-2" data-name="Fill 6" d="M0,.72l6.91-.1S6.9.51,6.891.28C4.511.449,2.21.589,0,.72" transform="translate(159.791 167.97)" fill="#c83820"/>
        <g id="Sweater_color" data-name="Sweater color" transform="translate(18.991 0)">
          <path id="Sweater" d="M0,243.57l22.811,2.859,36.739-57.46,1.341-19.1,55.969-.83,23.89-.35h.05c2.21-.131,4.511-.27,6.89-.44,30.09-2.1,71.78-7.951,74.64-24.151,5.19-29.34-34.07-86.279-38.71-92.879-.29-.41-.439-.63-.439-.63-6.58-9.4-13.2-16.71-19.381-20.6-12.02-7.57-23.29-9.231-34-9.2L126.931,0,83.24,6.029,85.62,23.31c-12.83,1.23-21.559,3.739-29.729,11.239C29.66,58.63,27.73,148.82,27.73,148.82Z" fill="#ce3d29"/>
        </g>
        <path id="Fill_10-2" data-name="Fill 10" d="M0,.475v.4s10.02.02,23.89-.75Z" transform="translate(135.851 168.565)" fill="#c83820"/>
        <path id="Stroke_12" data-name="Stroke 12" d="M15.15,95.051C11.942,54.308-10.263,45.693,5.737,0" transform="translate(65.535 74.587)" fill="none" stroke="#000" stroke-miterlimit="10" stroke-width="3" opacity="0.201"/>
        <path id="Fill_14" data-name="Fill 14" d="M37.942,134.99l83.438-9.617a4.462,4.462,0,0,0,3.783-5.648L92.195,3.246a4.462,4.462,0,0,0-4.8-3.217L3.953,9.646A4.461,4.461,0,0,0,.171,15.294L33.138,131.772a4.463,4.463,0,0,0,4.8,3.218" transform="translate(4.967 85.053)" fill="#18181c"/>
        <path id="iPad" d="M117,90.889q-.238.064-.482.132a47.257,47.257,0,0,1-19.963,1.453c-5.3-.693-9.858-1.6-9.807-2.445.146-2.137,2.719-2.616,2.719-2.616l4.95.239,4.762-.282S77.3,83.232,77.3,82.591c.068-2.257,3.659-3.172,3.659-3.172s-7.523-1.2-7.437-2.394c.205-3.043,3.564-3.274,3.564-3.274s-.932-.8-.838-1.548c.368-3,5.72-3.5,8.268-3.864,0,0,8.669-.119,11.251-.761A67.024,67.024,0,0,0,109.137,63.1L92.195,3.246a4.463,4.463,0,0,0-4.8-3.217L3.953,9.647A4.46,4.46,0,0,0,.171,15.294L33.138,131.772a4.462,4.462,0,0,0,4.8,3.218l83.438-9.617a4.463,4.463,0,0,0,3.783-5.648L117,90.889Z" transform="translate(0 85.625)" fill="#746bff"/>
        <g id="Skin_color" data-name="Skin color" transform="translate(2.365 136.439)">
          <path id="Skin" d="M132.935,0h0A3.908,3.908,0,0,0,130.1,2.13c-1.17,2.591.817,6.442.837,6.481l-.016-.016c-.861-.715-5.256-4.282-7.247-4.282h-.055a34.133,34.133,0,0,0-12.036,2.23,12.054,12.054,0,0,0-5.462,4.2,7.248,7.248,0,0,0-1.179,5.8,1.826,1.826,0,0,0,1.908,1.182,11.322,11.322,0,0,0,4.569-1.6.115.115,0,0,0-.012.023A102.553,102.553,0,0,0,106.534,28.5a76.318,76.318,0,0,0-2.829,11.622,37.544,37.544,0,0,0-.178,11.818l21.833,2.737c5.215-6.137,11.627-13.837,12.56-15.67,1.578-3.1,4.6-18.776,4.457-21.97-.14-3.058-9.35-16.9-9.443-17.036ZM41.421,119.733a48.306,48.306,0,0,0-13.192,1.917c-.383.108-.756.206-1.117.3l-.293.077c-.858.225-1.639.421-2.394.611a48.236,48.236,0,0,0-13.91,5.426A71.8,71.8,0,0,0,0,135.458l5.531,20.467,7.626,2.606a58,58,0,0,0,9.516,2.489,43.646,43.646,0,0,0,6.541.554c1.542.053,3.136.108,4.748.283l-2.2-8.063a2.373,2.373,0,0,1-.45-.591,3.253,3.253,0,0,0-.3-.426c.121-.1.243-.212.372-.331l.142-.13c1.4-1.281,4.316-3.945,17.449-7.224,2.547-.633,11.164-.759,11.251-.76l.6-.084h.006c2.737-.374,7.319-1,7.66-3.78.091-.724-.8-1.515-.837-1.547h.009a5.1,5.1,0,0,0,1.7-.5,3.234,3.234,0,0,0,1.859-2.778c.084-1.182-7.362-2.382-7.438-2.394h.008c.367-.1,3.587-1.053,3.652-3.172,0-.631-21.659-4.738-21.878-4.779l4.762-.282,4.95.239c.026,0,2.575-.5,2.719-2.615.044-.733-3.53-1.625-9.806-2.445A51.368,51.368,0,0,0,41.421,119.733Z" transform="translate(142.383 161.858) rotate(180)" fill="#ffdbbf"/>
        </g>
        <path id="Stroke_4" data-name="Stroke 4" d="M23.5,0s-2.84,10.729-12.587,14.072C7.5,15.241,8.353,29.041,0,27.391" transform="translate(5.703 254.05)" fill="none" stroke="#000" stroke-miterlimit="10" stroke-width="3" opacity="0.148"/>
        <path id="Fill_20" data-name="Fill 20" d="M.336,4.408c.657,2.064,2.059,3.461,3.132,3.12s1.41-2.292.753-4.356S2.162-.29,1.089.051-.321,2.343.336,4.408" transform="translate(83.382 92.098)" fill="#020101"/>
        <path id="Stroke_22" data-name="Stroke 22" d="M31.3,0l21.06,34.872L0,55.591" transform="translate(136.46 82.666)" fill="none" stroke="#000" stroke-miterlimit="10" stroke-width="3" opacity="0.2"/>
      </g>
      <g id="Group_15" data-name="Group 15" transform="translate(0 242.999)">
        <g id="Shoes" transform="translate(0 218.742)">
          <path id="Shoes-2" data-name="Shoes" d="M0,0,3.351,64.522,26.026,53.995,23.445,31.467l.014,0c1.267-.337,12.764-3.442,26.253-8.632a188.547,188.547,0,0,0,21.866-9.886C79.364,8.729,85.4,4.425,89.518.155ZM138,99.644h0L104.25,154.971l24.813,3.738,10.311-20.292.017.007c.91.306,9.208,3.064,20.239,5.783,6.819,1.681,13.341,3.02,19.383,3.98A131.328,131.328,0,0,0,199.288,150a59.3,59.3,0,0,0,12.743-1.219L138,99.644Z" transform="translate(212.031 158.709) rotate(180)" fill="#0d0b6d"/>
        </g>
        <g id="Skin_color-2" data-name="Skin color" transform="translate(70.173 221.62)">
          <path id="Skin-2" data-name="Skin" d="M24.313,0h0L0,.893.731,28.155,24.516,18.7,24.313,0Zm95.159,96.651h0l-14.48,23.229,25.148,5.252,10.184-15.772-20.85-12.71Z" transform="translate(140.323 125.133) rotate(180)" fill="#ffdbbf"/>
        </g>
        <g id="Pants" transform="translate(65.541 0)">
          <path id="Pants-2" data-name="Pants" d="M84.494,200.1,96.8,333.725h57.019l-2.531-194.014,108.835.75c31.048,0,61.078-26.664,58.925-57.653l-3.385-31.55L149.461,2.155C118.692-4.8,108.024,4.389,88.076,39.9L0,220.438l48.384,32.333Z" transform="translate(0)" fill="#2f2f3d"/>
        </g>
        <g id="Overlay" transform="translate(142.187 62.746)">
          <path id="Fill_13-3" data-name="Fill 13" d="M58.929,0h0L183.481,77.715l-108.835-.75,2.531,194.014H20.158L.61,58.8C-4.213,20.188,19.949,0,58.929,0" transform="translate(0 0)" fill="#18181c" opacity="0.15"/>
        </g>
      </g>
    </g>
  </g>
</svg>
