<svg xmlns="http://www.w3.org/2000/svg" xmlns:xlink="http://www.w3.org/1999/xlink" viewBox="0 0 330 564">
  <defs>
    <clipPath id="clip-path">
      <rect id="Rectangle_21" data-name="Rectangle 21" width="330" height="564" transform="translate(246 1704)" fill="#fff"/>
    </clipPath>
    <clipPath id="clip-path-2">
      <path id="Pants" d="M132.541,110.131,98.676,0H231.333a387.622,387.622,0,0,1-19.883,121.837L264.775,373a8.766,8.766,0,0,1-2.734,8.341l8.1,28.771-33.119,9.642-7.889-26.811-.206.068a8.818,8.818,0,0,1-11.2-5.761L165.047,215.9q-8.912,13.139-19.452,26.182c-44.553,54.961-72.321,84.6-86.6,98.863a13.976,13.976,0,0,1-18.408,1.182L20.221,358.893,0,331.078l20.126-16.573a13.767,13.767,0,0,1,1.428-16.488c20.52-22.9,78.27-92.822,110.987-187.886Z" transform="translate(0 0)" fill="#19141e"/>
    </clipPath>
  </defs>
  <g id="guy_in_phone" transform="translate(-246 -1704)" clip-path="url(#clip-path)">
    <g id="Person_Man_2" data-name="Person / Man / 2" transform="translate(189 1704)">
      <g id="Group_25" data-name="Group 25" transform="translate(146)">
        <g id="Face_color" data-name="Face color" transform="translate(0 32.603)">
          <path id="Face" d="M70.979,116.29,70.118,86.6s36.123,2.873,43.851-1.137c0,0,9.443-48.6-1.82-75.51l-.228-1.048L35.691,0,30.949,43.159C28.381,35.6,7.659,27.546,2.119,38.378c-12,23.472,30.919,39.276,30.919,39.276L28.68,116.647" transform="translate(0)" fill="#c57f5c"/>
        </g>
        <path id="Fill_4" data-name="Fill 4" d="M24.357,5.216,0,0,24.24,16.355Z" transform="translate(45.76 113.987)" opacity="0.4"/>
        <path id="Fill_6" data-name="Fill 6" d="M1.67,0l8.417,20.552L0,20.681Z" transform="translate(88.54 70.687)" fill="#2437a8"/>
        <path id="Fill_8" data-name="Fill 8" d="M10.117,4.187A5.1,5.1,0,1,1,4.192.082a5.092,5.092,0,0,1,5.925,4.105" transform="translate(70.496 72.34)" fill="#0d0b6d"/>
        <path id="Fill_10" data-name="Fill 10" d="M10.117,4.187A5.1,5.1,0,1,1,4.192.082a5.092,5.092,0,0,1,5.925,4.105" transform="translate(96.97 72.34)" fill="#0d0b6d"/>
        <g id="Group_15" data-name="Group 15" transform="translate(79.676 96.806)">
          <path id="Fill_12" data-name="Fill 12" d="M0,0A11.913,11.913,0,0,0,10.509,5.226" transform="translate(0.069 0.38)" fill="#fff"/>
          <path id="Stroke_14" data-name="Stroke 14" d="M0,0A11.913,11.913,0,0,0,10.509,5.226" transform="translate(0.069 0.38)" fill="none" stroke="#252535" stroke-miterlimit="10" stroke-width="4"/>
        </g>
        <path id="Path" d="M15.645,30.539A34.78,34.78,0,0,0,0,21.111L.717,6.236,36.525,0c-2.468,16.594-12.052,25.648-20.88,30.539Z" transform="translate(15.764 45.682)" fill="#6f4733"/>
        <path id="Fill_18" data-name="Fill 18" d="M98.4,48.36c-3.226-3.065-24.252-4.015-49.527-2.071-5.879.452-11.515,1.022-16.726,1.682C14.913,50.132,2.236,53.206.173,55.91-2.116,22.129,18.6,2.011,45.72.139c17.793-1.23,33.929,5.705,43.588,20.154C94.251,27.7,97.5,37.084,98.4,48.36" transform="translate(15.866 0)" fill="#393954"/>
        <path id="Fill_22" data-name="Fill 22" d="M66.661,29.473h-.009a1.163,1.163,0,0,0-.4-.669C63.028,25.739,42,24.79,16.726,26.734,10.847,27.186,5.212,27.755,0,28.416,7.413,21.381,20.975,10.259,36.972,5.268A122.328,122.328,0,0,1,57.166.738C72.739-1.323,85.234.792,85.859,8.867c.806,10.507-16.509,19.3-19.2,20.607" transform="translate(48.008 19.556)" fill="#161629"/>
      </g>
      <g id="Group_21" data-name="Group 21" transform="translate(0 319.237)">
        <g id="Shoes" transform="translate(0 314.078)">
          <path id="Shoes-2" data-name="Shoes" d="M262.912,84.96,288.7,83.6l6.091,19.62s47.565-19.5,72.033-12.1l-82.451,47.728ZM0,42.35,57.083,0l9.265,24.719L39.677,49.158a285.847,285.847,0,0,1,5.632,31.6A261.109,261.109,0,0,1,46.24,123Z" transform="translate(0.876)" fill="#0d0b6d"/>
        </g>
        <g id="Legs_skin" data-name="Legs skin" transform="translate(24.533 314.055)">
          <path id="Skin" d="M249.852,112.037h0l-9.413-22.8,25.5-2.295,5.019,16.3-21.1,8.8ZM15.838,49.182h0L0,24.844,32.854,0l2.931,30.972L15.839,49.182Z" transform="translate(0.18 0)" fill="#c57f5c"/>
        </g>
        <g id="Pants-2" data-name="Pants" transform="translate(28.547)">
          <path id="Pants-3" data-name="Pants" d="M132.541,110.131,98.676,0H231.333a387.622,387.622,0,0,1-19.883,121.837L264.775,373a8.766,8.766,0,0,1-2.734,8.341l8.1,28.771-33.119,9.642-7.889-26.811-.206.068a8.818,8.818,0,0,1-11.2-5.761L165.047,215.9q-8.912,13.139-19.452,26.182c-44.553,54.961-72.321,84.6-86.6,98.863a13.976,13.976,0,0,1-18.408,1.182L20.221,358.893,0,331.078l20.126-16.573a13.767,13.767,0,0,1,1.428-16.488c20.52-22.9,78.27-92.822,110.987-187.886Z" transform="translate(0 0)" fill="#19141e"/>
        </g>
        <g id="Overlay" transform="translate(127.223 0)">
          <path id="Path-2" data-name="Path" d="M130.461,392.942l-.206.068a8.818,8.818,0,0,1-11.2-5.761L66.371,215.9,33.866,110.132,0,0H86.91l25.864,121.837L166.1,373a8.766,8.766,0,0,1-2.734,8.341l8.1,28.771-33.119,9.642-7.889-26.811Z" transform="translate(0 0)" fill="#fff" opacity="0.099"/>
        </g>
        <g id="Pants_line" data-name="Pants line" transform="translate(148.663)">
          <path id="Pants_line-2" data-name="Pants line" d="M126.785,386.28l-13.949,4.951L56.865,197.167,22.334,77.447,0,0H28.31l4.977,19.531L71.638,169.957Z" transform="translate(0 0.001)" fill="#efefef"/>
        </g>
      </g>
      <g id="Group_36" data-name="Group 36" transform="translate(66 122.871)">
        <g id="Skin_color" data-name="Skin color" transform="translate(0 19.772)">
          <path id="Mask" d="M24.93,288.176c-1.363,0-3.95-7.935-4.014-8.131a.123.123,0,0,1,0,.015,9.775,9.775,0,0,1-.532,2.182A3.671,3.671,0,0,1,17.9,284.8H17.9c-.77,0-9.321-24.051-9.407-24.294l.522,5.518,1.152,5.65a5.339,5.339,0,0,1-.352,1.588,3.073,3.073,0,0,1-2.184,1.992.282.282,0,0,1-.06.007c-.461,0-1.13-1.085-1.987-3.224-.739-1.843-1.613-4.475-2.53-7.61A54.765,54.765,0,0,1,1.19,241.22c.193-1.683.333-3.169.457-4.481a55.853,55.853,0,0,1,3.811-17.008c.422-1.161,1-2.539,1.715-4.094-1.023-8.83-2.98-26.2-4.59-43.333C.6,151.263-.244,137.135.059,130.315c.2-4.4,1.436-10.393,3.686-17.826,1.8-5.946,4.247-12.818,7.273-20.427,5.149-12.948,10.265-23.692,10.316-23.8L62.788,91.437l-22.848,41.63-1.254,79.638,2.465,4.68a66.932,66.932,0,0,1,4.567,10.5,45.665,45.665,0,0,1,1.706,6.793,51.527,51.527,0,0,0,4.711,14.444c1.594,3.307,2.082,5.62,1.41,6.688a1.537,1.537,0,0,1-1.406.672,8.448,8.448,0,0,1-4.2-1.722,16.393,16.393,0,0,1-4-3.839,20.16,20.16,0,0,1-2.467-5.547c-.846-2.582-1.645-5.02-3.8-6.442-.108.172-.229.353-.357.544-1.356,2.019-3.878,5.777-5.33,21.459C31.7,263.975,33.076,273.9,33.09,274c0,.221.006.46.011.713.056,3.214.151,8.589-3,9.471a1.085,1.085,0,0,1-.293.038,3.179,3.179,0,0,1-1.649-.734.036.036,0,0,1,0,.009,5.885,5.885,0,0,1-.273,2.04A3.781,3.781,0,0,1,25,288.168.341.341,0,0,1,24.93,288.176Zm189.1-139.767a16.271,16.271,0,0,1-6.216-1.218c-4.717-1.938-10.041-7.293-15.823-15.917a207.383,207.383,0,0,1-14.649-26.734c-8.679-18.468-14.9-36.1-14.963-36.279l40.241-23.949,18.082,48.4,36.922-40.111c-1.265-8.021-2.25-18.349.241-22,4.206-6.162,25.568-25.249,25.783-25.441l3.919,32.544.685-2.744a1.246,1.246,0,0,1,.113-.5c.007-.017.015-.033.023-.05l1.585-6.351c-.7-.354-.922-.852-.65-1.477a5.43,5.43,0,0,1,1.453-1.746L296.194,3.16l.221.1c.576.258,2.106.942,4.157,1.875a2.781,2.781,0,0,1,.556-.051c4.849,0,18.884,9.557,19.025,9.653.333.215.556.8.661,1.726.394,3.482-.87,11.66-3.144,20.351-2.478,9.469-5.37,16.572-7.736,19-4.226,4.338-17.3,8.076-24.719,9.918-5.365,10.533-16.31,30.889-29.334,48.871-7.335,10.126-14.336,18.1-20.81,23.712A52.09,52.09,0,0,1,224.4,145.68,23.512,23.512,0,0,1,214.034,148.409ZM141.26,21.109c-1.08,0-2.225-.035-3.4-.1a52.118,52.118,0,0,1-15.5-3.21,43.71,43.71,0,0,1-10.863-5.99A38.74,38.74,0,0,1,101.408.636C107.527.214,111.294,0,114.908,0c5.846,0,11.415.577,23.617,1.841a101.014,101.014,0,0,1,17.954,3.683q.824.228,1.638.452c.653,2.215,1.363,6.444-1.214,9.889C154.3,19.344,149.038,21.109,141.26,21.109Z" transform="translate(0)" fill="#c57f5c"/>
        </g>
        <g id="T-Shirt" transform="translate(17 19.883)">
          <path id="T-Shirt-2" data-name="T-Shirt" d="M44.28,176.485,42.05,95.532,0,64.088S19.83,24.323,53.76,8.5A92.215,92.215,0,0,1,84.15.035c.768-.076.162-.054.256.308a3.957,3.957,0,0,0,.453.86c.215.347.215.234,1.268,1.788A45.307,45.307,0,0,0,91.1,8.5a33.509,33.509,0,0,0,7.3,5.422,72.475,72.475,0,0,0,7.87,3.607,27.355,27.355,0,0,0,4.553,1.43c3.943.937,7.013,1.227,13.274,1.552.76.04,5.161-.285,5.935-.439,1.1-.22,2.093-.418,3.341-.759a14.254,14.254,0,0,0,6.4-4.337c.871-1.082,1.7-4.639,1.444-7.259s-1.4-2.626-.354-2.34c18.371,5,35.731,15.31,45.88,33.593q1.228,2.21,2.247,4.257l.144-.028,16.354,37.6L182.143,94.4l-4.873,82.087Z" transform="translate(0.258 0.49)" fill="#5e93d1"/>
        </g>
        <path id="Stroke_16" data-name="Stroke 16" d="M0,22.554l10.667,7.218L36.308,0" transform="translate(59.306 93.347)" fill="none" stroke="#000" stroke-miterlimit="10" stroke-width="5" opacity="0.201"/>
        <path id="Phone" d="M31.947,63.274l-1.858,9.089H0L14.193,0H44.282L38.771,28.1l-5.917-2.735-1.843-.509-1.451.081-.629.428v1.758l6.432,9.224-4.92,2.138-7.57,3.96-2.187,1.51-.847.783-.692.618-.441.531-.265.475-.114.616.114.273.132.21.191.189,2.481.874,5.66-1.546H32.5l-7.467,1.546-4.92,2.936L18.441,53.03,17.5,54.185v1.057l1.651.741L29.561,54.79l-3.448,1.871-2.285,1.413-2.095,1.078-1.62,2.084v1.029l.574.6,1.454.771h6.686Z" transform="translate(270.887 0)" fill="#5e93d1"/>
        <path id="Fill_23" data-name="Fill 23" d="M4.979,72.363H0L14.193,0h4.978Z" transform="translate(265.904 0)" fill="#020101"/>
        <path id="Fill_34" data-name="Fill 34" d="M4.139,4.237C3.723,6.351,2.49,7.891,1.385,7.675S-.278,5.572.138,3.459,1.787-.195,2.892.02s1.663,2.1,1.247,4.217" transform="translate(286.119 4.165)" fill="#020101"/>
      </g>
    </g>
  </g>
</svg>
