<svg xmlns="http://www.w3.org/2000/svg" width="349.396" height="479.359" viewBox="0 0 349.396 479.359">
  <g id="happy_worker" transform="translate(-829 -223.573)">
    <g id="happy" transform="translate(841.966 379.516)">
      <circle id="Ellipse_1" data-name="Ellipse 1" cx="161.708" cy="161.708" r="161.708" transform="translate(0 0)" fill="#ffc10e"/>
      <path id="Path_1" data-name="Path 1" d="M81.391,237.127a106.158,106.158,0,0,0,212.316,0H81.391Z" transform="translate(-25.849 -75.309)" fill="#333"/>
      <path id="Path_2" data-name="Path 2" d="M150.452,298.7a59.029,59.029,0,0,0,118.057,0Z" transform="translate(-47.782 -94.866)" fill="#ca2027"/>
      <g id="Group_1" data-name="Group 1" transform="translate(87.158 80.535)">
        <circle id="Ellipse_2" data-name="Ellipse 2" cx="25.397" cy="25.397" r="25.397" fill="#333"/>
        <circle id="Ellipse_3" data-name="Ellipse 3" cx="25.397" cy="25.397" r="25.397" transform="translate(96.034)" fill="#333"/>
      </g>
    </g>
    <g id="hard" transform="translate(829 223.573)">
      <g id="Group_2" data-name="Group 2" transform="translate(0 0)">
        <path id="Path_3" data-name="Path 3" d="M83.088,285.7h-24.1a6.024,6.024,0,0,1,0-12.049h24.1a6.024,6.024,0,1,1,0,12.049Z" transform="translate(-16.823 -104.981)" fill="#f3d55b"/>
        <path id="Path_4" data-name="Path 4" d="M445.019,285.7h-24.1a6.024,6.024,0,1,1,0-12.049h24.1a6.024,6.024,0,0,1,0,12.049Z" transform="translate(-131.769 -104.981)" fill="#f3d55b"/>
        <path id="Path_5" data-name="Path 5" d="M191.405,75.216a6.02,6.02,0,0,1-6.024-6.024V32.506a6.024,6.024,0,1,1,12.049,0V69.192a6.02,6.02,0,0,1-6.024,6.024Z" transform="translate(-58.876 -26.482)" fill="#f3d55b"/>
        <path id="Path_6" data-name="Path 6" d="M314.992,75.216a6.02,6.02,0,0,1-6.024-6.024V32.506a6.024,6.024,0,0,1,12.049,0V69.192a6.02,6.02,0,0,1-6.024,6.024Z" transform="translate(-98.126 -26.482)" fill="#f3d55b"/>
        <path id="Path_7" data-name="Path 7" d="M281.766,171.779a48.193,48.193,0,1,1-96.385,0,47.29,47.29,0,0,1,6.507-24.1,48.106,48.106,0,0,1,83.371,0A47.282,47.282,0,0,1,281.766,171.779Z" transform="translate(-58.876 -57.322)" fill="#f3d55b"/>
        <path id="Path_8" data-name="Path 8" d="M190.493,219.132H162.12a11.582,11.582,0,0,1-12.048-10.964V169.856a11.582,11.582,0,0,1,12.048-10.964h18.555a47.292,47.292,0,0,0-6.507,24.1A48.039,48.039,0,0,0,190.493,219.132Z" transform="translate(-47.663 -68.531)" fill="#f3d55b"/>
        <path id="Path_9" data-name="Path 9" d="M117.523,176.552V212.7H47.583a268.2,268.2,0,0,1,7.41-36.145Z" transform="translate(-15.113 -74.143)" fill="#f3d55b"/>
        <path id="Path_10" data-name="Path 10" d="M343.122,169.856v38.313a11.582,11.582,0,0,1-12.048,10.964H302.7a48.042,48.042,0,0,0,16.325-36.145,47.3,47.3,0,0,0-6.506-24.1h18.555A11.583,11.583,0,0,1,343.122,169.856Z" transform="translate(-96.136 -68.531)" fill="#f3d55b"/>
        <path id="Path_11" data-name="Path 11" d="M431.873,212.7H361.934V176.551h62.529A268.3,268.3,0,0,1,431.873,212.7Z" transform="translate(-114.948 -74.142)" fill="#f3d55b"/>
        <path id="Path_12" data-name="Path 12" d="M319.277,166.5a181.993,181.993,0,0,0-2.35-31.22,204.3,204.3,0,0,0-7.41-31.22c-11.747-35.485-37.289-75.394-92.65-88.923V10.406c-.02-5.74-5.4-10.39-12.048-10.406H144.58c-6.646.017-12.029,4.666-12.048,10.406v4.735c-55.361,13.529-80.9,53.437-92.65,88.923a204.267,204.267,0,0,0-7.41,31.22,181.989,181.989,0,0,0-2.35,31.22C13.487,166.5,0,178.151,0,192.519s13.485,26.016,30.12,26.016H319.277c16.635,0,30.12-11.648,30.12-26.016S335.911,166.5,319.277,166.5Z" transform="translate(-0.002 16.403)" fill="#f3d55b"/>
      </g>
      <g id="Group_3" data-name="Group 3" transform="translate(36.145 0.024)">
        <path id="Path_13" data-name="Path 13" d="M83.088,285.7h-24.1a6.024,6.024,0,0,1,0-12.049h24.1a6.024,6.024,0,1,1,0,12.049Z" transform="translate(-52.968 -105.005)" fill="#f18d46"/>
        <path id="Path_14" data-name="Path 14" d="M445.019,285.7h-24.1a6.024,6.024,0,1,1,0-12.049h24.1a6.024,6.024,0,0,1,0,12.049Z" transform="translate(-167.913 -105.005)" fill="#f18d46"/>
        <path id="Path_15" data-name="Path 15" d="M191.405,82.458a6.02,6.02,0,0,1-6.024-6.024V39.748a6.024,6.024,0,1,1,12.049,0V76.433a6.02,6.02,0,0,1-6.024,6.024Z" transform="translate(-95.021 -33.583)" fill="#f18d46"/>
        <path id="Path_16" data-name="Path 16" d="M314.992,83.251a6.02,6.02,0,0,1-6.024-6.024V40.541a6.024,6.024,0,0,1,12.049,0V77.227a6.019,6.019,0,0,1-6.024,6.024Z" transform="translate(-134.271 -34.517)" fill="#f18d46"/>
        <path id="Path_17" data-name="Path 17" d="M281.766,171.779a48.193,48.193,0,1,1-96.385,0,47.29,47.29,0,0,1,6.507-24.1,48.106,48.106,0,0,1,83.371,0A47.282,47.282,0,0,1,281.766,171.779Z" transform="translate(-95.021 -57.345)" fill="#f18d46"/>
      </g>
      <path id="Path_18" data-name="Path 18" d="M190.493,219.132H162.12a11.582,11.582,0,0,1-12.048-10.964V169.856a11.582,11.582,0,0,1,12.048-10.964h18.555a47.292,47.292,0,0,0-6.507,24.1A48.039,48.039,0,0,0,190.493,219.132Z" transform="translate(-47.663 -68.531)" fill="#f9eab0"/>
      <path id="Path_19" data-name="Path 19" d="M117.523,176.552V212.7H47.583a268.2,268.2,0,0,1,7.41-36.145Z" transform="translate(-15.113 -74.143)" fill="#95a5a5"/>
      <path id="Path_20" data-name="Path 20" d="M343.122,169.856v38.313a11.582,11.582,0,0,1-12.048,10.964H302.7a48.042,48.042,0,0,0,16.325-36.145,47.3,47.3,0,0,0-6.506-24.1h18.555A11.583,11.583,0,0,1,343.122,169.856Z" transform="translate(-96.136 -68.531)" fill="#f9eab0"/>
      <path id="Path_21" data-name="Path 21" d="M431.873,212.7H361.934V176.551h62.529A268.3,268.3,0,0,1,431.873,212.7Z" transform="translate(-114.948 -74.142)" fill="#95a5a5"/>
    </g>
  </g>
</svg>
