<svg width="405" height="473" viewBox="0 0 405 473" fill="none" xmlns="http://www.w3.org/2000/svg">
<path d="M162.675 424.359C251.984 424.359 324.383 351.96 324.383 262.651C324.383 173.342 251.984 100.943 162.675 100.943C73.3659 100.943 0.966797 173.342 0.966797 262.651C0.966797 351.96 73.3659 424.359 162.675 424.359Z" fill="#FFC10E"/>
<path d="M56.5098 262.761C56.5098 290.916 67.6942 317.917 87.6027 337.826C107.511 357.734 134.513 368.919 162.668 368.919C190.823 368.919 217.824 357.734 237.733 337.826C257.641 317.917 268.826 290.916 268.826 262.761H56.5098Z" fill="#333333"/>
<path d="M103.637 304.777C103.701 320.39 109.948 335.342 121.011 346.359C132.074 357.377 147.052 363.563 162.665 363.563C178.279 363.563 193.256 357.377 204.319 346.359C215.382 335.342 221.629 320.39 221.694 304.777H103.637Z" fill="#CA2027"/>
<path d="M113.522 232.272C127.548 232.272 138.919 220.901 138.919 206.875C138.919 192.848 127.548 181.478 113.522 181.478C99.4956 181.478 88.125 192.848 88.125 206.875C88.125 220.901 99.4956 232.272 113.522 232.272Z" fill="#333333"/>
<path d="M209.555 232.272C223.582 232.272 234.952 220.901 234.952 206.875C234.952 192.848 223.582 181.478 209.555 181.478C195.529 181.478 184.158 192.848 184.158 206.875C184.158 220.901 195.529 232.272 209.555 232.272Z" fill="#333333"/>
<path d="M367.463 350.242C367.766 350.318 368.087 350.349 368.417 350.333C370.192 350.242 371.556 348.726 371.465 346.951L369.191 303.211C369.096 301.438 367.586 300.072 365.809 300.163C364.034 300.252 362.67 301.768 362.759 303.545L365.035 347.284C365.109 348.729 366.127 349.906 367.463 350.242Z" fill="#CCD1D9"/>
<path d="M342.486 343.954C343.823 344.291 345.274 343.738 346.027 342.498L368.729 305.048C369.65 303.526 369.167 301.545 367.644 300.625C366.121 299.703 364.145 300.191 363.222 301.708L340.521 339.16C339.6 340.681 340.083 342.662 341.604 343.583C341.884 343.752 342.185 343.878 342.486 343.954Z" fill="#CCD1D9"/>
<path d="M292.459 331.358C292.762 331.435 293.083 331.465 293.412 331.449C295.189 331.358 296.553 329.842 296.461 328.067L294.187 284.327C294.092 282.554 292.583 281.189 290.805 281.279C289.03 281.369 287.664 282.884 287.755 284.661L290.03 328.4C290.108 329.846 291.123 331.022 292.459 331.358Z" fill="#CCD1D9"/>
<path d="M267.482 325.07C268.819 325.407 270.27 324.855 271.023 323.614L293.725 286.164C294.646 284.642 294.163 282.661 292.64 281.741C291.12 280.82 289.141 281.308 288.218 282.825L265.515 320.276C264.596 321.797 265.08 323.778 266.6 324.699C266.883 324.869 267.181 324.994 267.482 325.07Z" fill="#CCD1D9"/>
<path d="M326.551 282.056L325.33 286.905L335.027 289.346L336.248 284.498C336.924 281.814 335.303 279.104 332.62 278.428C329.937 277.753 327.226 279.373 326.551 282.056Z" fill="#CCD1D9"/>
<path d="M325.587 286.969L288.286 277.579C285.745 276.939 283.141 278.356 282.533 280.77C281.925 283.184 283.548 285.666 286.089 286.306L369.874 307.4C372.45 308.049 375.02 306.622 375.628 304.209C376.236 301.794 374.648 299.321 372.072 298.673L325.587 286.969Z" fill="#E6E9ED"/>
<path d="M315.26 367.863L332.83 298.074L323.133 295.633L305.57 365.391L310.59 365.525L315.251 367.895L315.26 367.863Z" fill="#CCD1D9"/>
<path d="M343.728 337.941L369.329 344.386C371.1 344.832 372.184 346.564 371.756 348.263C369.626 356.726 360.714 361.81 351.89 359.588C343.068 357.367 337.624 348.669 339.755 340.206C340.183 338.507 341.959 337.495 343.728 337.941Z" fill="#656D78"/>
<path d="M268.96 319.117L293.786 325.367C295.502 325.799 296.543 327.52 296.116 329.219C293.985 337.682 285.29 342.821 276.734 340.667C268.179 338.513 262.953 329.869 265.084 321.407C265.512 319.708 267.245 318.685 268.96 319.117Z" fill="#656D78"/>
<g clip-path="url(#clip0)">
<path d="M334.975 433.653C341.976 430.89 347.608 425.431 350.602 418.535L355.246 407.753C357.753 402.061 357.863 395.545 355.584 389.769L347.072 368.199C343.256 358.529 332.333 353.788 322.663 357.604L313.913 361.056L303.296 356.448C299.085 354.62 294.185 356.554 292.358 360.764C290.529 364.975 292.463 369.875 296.674 371.703L290.572 369.054C288.497 368.154 286.278 368.169 284.292 368.903C282.28 369.697 280.56 371.235 279.633 373.371C277.806 377.581 279.74 382.481 283.95 384.309L288.526 386.295C286.451 385.395 284.233 385.411 282.29 386.127L282.246 386.144C280.234 386.938 278.515 388.476 277.588 390.612C275.76 394.822 277.694 399.723 281.904 401.55L289.531 404.861C287.456 403.961 285.238 403.977 283.295 404.692C281.265 405.443 279.52 407.042 278.593 409.178C276.766 413.387 278.699 418.288 282.909 420.116L313.236 433.28C320.131 436.273 327.974 436.415 334.975 433.653Z" fill="#FFC10E"/>
<path d="M357.766 388.904L349.256 367.337C344.972 356.482 332.652 351.134 321.797 355.418L313.952 358.513L304.219 354.288C298.825 351.947 292.529 354.431 290.187 359.826C289.299 361.88 289.078 364.112 289.53 366.259C284.653 365.19 279.529 367.683 277.468 372.43C275.603 376.726 276.791 381.581 280.076 384.574C278.07 385.668 276.398 387.416 275.422 389.671C273.148 394.903 275.415 400.981 280.482 403.481C278.7 404.615 277.288 406.254 276.427 408.237C274.083 413.637 276.565 419.924 281.965 422.269L312.314 435.44C319.85 438.711 328.204 438.852 335.839 435.84C343.474 432.827 349.48 427.019 352.756 419.481L357.439 408.692C360.182 402.356 360.3 395.326 357.766 388.904ZM320.054 361.162L323.523 359.793C331.968 356.461 341.548 360.619 344.881 369.064L353.391 390.63C355.466 395.889 355.369 401.641 353.117 406.828L348.434 417.616C345.664 423.999 340.572 428.92 334.105 431.472C327.638 434.024 320.563 433.904 314.18 431.133L283.83 417.963C280.907 416.694 279.466 413.041 280.734 410.118C282.043 407.103 285.566 405.713 288.58 407.022L290.051 407.66C290.648 407.92 291.291 407.908 291.851 407.687C292.411 407.466 292.887 407.032 293.148 406.438C293.664 405.248 293.117 403.861 291.927 403.345L282.83 399.395C279.815 398.086 278.426 394.564 279.734 391.55C280.369 390.086 281.537 388.957 283.016 388.374C284.495 387.79 286.118 387.817 287.577 388.449L296.675 392.399C297.273 392.658 297.916 392.648 298.476 392.427C299.036 392.206 299.511 391.77 299.773 391.177C300.289 389.987 299.742 388.6 298.552 388.083L284.877 382.147C281.863 380.839 280.473 377.317 281.782 374.303C283.09 371.288 286.613 369.898 289.627 371.207L303.301 377.143C303.9 377.402 304.543 377.391 305.103 377.17C305.663 376.949 306.138 376.514 306.399 375.92C306.916 374.73 306.368 373.344 305.179 372.827L297.606 369.54C294.683 368.271 293.241 364.618 294.51 361.695C295.148 360.235 296.311 359.108 297.79 358.525C299.269 357.941 300.893 357.968 302.351 358.601L325.178 368.51C325.776 368.769 326.419 368.758 326.979 368.537C327.539 368.316 328.014 367.882 328.276 367.287C328.793 366.098 328.246 364.711 327.056 364.194L320.054 361.162Z" fill="#BE9622"/>
</g>
<path d="M301.673 73.0076C299.019 73.0076 296.875 70.8639 296.875 68.2095V39.3789C296.875 36.7245 299.019 34.5808 301.673 34.5808C304.325 34.5808 306.471 36.7245 306.471 39.3789V68.2095C306.471 70.8639 304.325 73.0076 301.673 73.0076Z" fill="#F6BB42"/>
<path d="M238.595 120.292H238.74C238.74 128.255 225.652 145.172 161.826 145.172C98 145.172 85.0566 128.304 85.0098 120.339H85.1058V59.2124L161.826 77.1091L238.595 59.2124V120.292Z" fill="#545C66"/>
<path d="M302.69 34.7097L158.757 1.11382C158.038 0.945134 157.295 0.945134 156.574 1.11382L12.704 34.7097C10.5345 35.2134 9 37.1533 9 39.3836C9 41.614 10.5345 43.5491 12.704 44.0575L156.569 77.6394C156.93 77.726 157.295 77.7635 157.663 77.7635C158.033 77.7635 158.394 77.7214 158.757 77.6394L302.69 44.0575C304.859 43.5538 306.394 41.614 306.394 39.3836C306.394 37.1533 304.859 35.2134 302.69 34.7097Z" fill="#656D78"/>
<path d="M315.747 103.054C315.839 102.738 315.918 102.431 315.939 102.098C315.949 101.998 316 101.906 316 101.801C316 101.567 315.899 101.365 315.871 101.145C315.839 100.925 315.881 100.707 315.817 100.491L306.289 66.8953C306.238 66.7219 306.116 66.5931 306.05 66.4314C305.924 66.1175 305.781 65.8317 305.593 65.5482C305.42 65.2928 305.235 65.0773 305.022 64.8664C304.802 64.6462 304.581 64.4541 304.321 64.2761C304.05 64.0933 303.766 63.9598 303.459 63.8309C303.295 63.7583 303.166 63.6388 302.988 63.5849C302.873 63.5521 302.754 63.5849 302.639 63.5615C302.302 63.4842 301.962 63.4795 301.611 63.4842C301.323 63.4889 301.055 63.4936 300.781 63.5521C300.643 63.5802 300.503 63.5428 300.364 63.5849C300.163 63.6435 300.018 63.7817 299.825 63.8637C299.558 63.9738 299.312 64.098 299.064 64.2573C298.781 64.44 298.546 64.6462 298.31 64.8852C298.108 65.0867 297.925 65.2975 297.764 65.5388C297.572 65.8153 297.438 66.1034 297.307 66.415C297.237 66.5837 297.11 66.7126 297.059 66.8906L287.472 100.482C287.404 100.707 287.448 100.929 287.418 101.159C287.385 101.379 287.289 101.571 287.289 101.801C287.289 101.902 287.343 101.984 287.348 102.084C287.371 102.426 287.453 102.738 287.544 103.064C287.624 103.352 287.683 103.631 287.816 103.888C287.947 104.167 288.132 104.392 288.32 104.638C288.507 104.891 288.676 105.137 288.91 105.338C289.126 105.535 289.381 105.669 289.63 105.828C289.913 105.999 290.187 106.168 290.508 106.283C290.609 106.318 290.672 106.388 290.773 106.419C291.209 106.538 291.647 106.594 292.078 106.599H311.202H311.212C311.645 106.594 312.081 106.543 312.512 106.419C312.613 106.388 312.676 106.318 312.772 106.287C313.097 106.173 313.376 106.004 313.669 105.828C313.917 105.674 314.168 105.535 314.379 105.343C314.613 105.132 314.787 104.886 314.974 104.643C315.157 104.397 315.344 104.167 315.473 103.898C315.602 103.631 315.67 103.342 315.747 103.054V103.054Z" fill="#FFCE54"/>
<path d="M215.317 116.206H100.163C97.5089 116.206 95.3652 114.06 95.3652 111.408C95.3652 108.754 97.5089 106.61 100.163 106.61H215.317C217.972 106.61 220.115 108.754 220.115 111.408C220.115 114.06 217.972 116.206 215.317 116.206Z" fill="#434A54"/>
<defs>
<clipPath id="clip0">
<rect width="90.5839" height="90.5839" transform="matrix(0.367064 0.930196 0.930196 -0.367064 255.48 370.169)" fill="white"/>
</clipPath>
</defs>
</svg>
