<svg width="135" height="39" viewBox="0 0 135 39" fill="#4963e6" xmlns="http://www.w3.org/2000/svg">
<path d="M11.1149 31.075C13.038 30.6702 13.0376 30.6685 13.0376 30.6685L13.0373 30.6671L13.0366 30.6643C13.035 30.658 13.0345 30.6556 13.0345 30.6556C13.0345 30.6556 13.0351 30.6575 13.0355 30.6599L13.0366 30.6643C13.0398 30.6768 13.0467 30.7021 13.0579 30.7394C13.0805 30.8149 13.1188 30.9328 13.176 31.0767C13.2938 31.3732 13.4727 31.7315 13.7204 32.0497C13.9659 32.3648 14.2389 32.5906 14.541 32.7187C14.8191 32.8366 15.2479 32.9271 15.9328 32.783C16.6176 32.6387 16.9685 32.3841 17.1705 32.1652C17.3897 31.9273 17.5407 31.6122 17.6278 31.227C17.7158 30.8382 17.7239 30.4405 17.7031 30.1236C17.693 29.9699 17.677 29.8472 17.6649 29.7695C17.6589 29.7311 17.654 29.7045 17.6516 29.6919L17.65 29.6839L17.6509 29.6883L17.6516 29.6919L17.6525 29.6954L17.6528 29.697C17.6528 29.697 17.6532 29.6985 19.5761 29.2937C21.4992 28.8888 21.4995 28.8906 21.4995 28.8906L21.5 28.8924L21.5009 28.8964L21.508 28.9292C21.5117 28.947 21.5163 28.9694 21.5214 28.996C21.5316 29.049 21.5442 29.1192 21.5575 29.2041C21.5839 29.3736 21.6134 29.6059 21.6317 29.8838C21.6675 30.43 21.6627 31.2015 21.4736 32.0377C21.2836 32.8775 20.8928 33.8432 20.111 34.6911C19.3119 35.5578 18.202 36.194 16.7717 36.4952C15.3412 36.7963 14.0577 36.664 12.9572 36.1971C11.8807 35.7405 11.1088 35.0196 10.5737 34.3325C10.0409 33.6482 9.70381 32.9485 9.50072 32.4377C9.39739 32.1778 9.32405 31.9547 9.27496 31.7899C9.25032 31.7073 9.23154 31.6385 9.21797 31.5862C9.21118 31.56 9.20566 31.5379 9.20135 31.52L9.19577 31.4966L9.19363 31.4874L9.19272 31.4835L9.19232 31.4816C9.19232 31.4816 9.19193 31.4799 11.1149 31.075Z" />
<path d="M25.386 21.0086C23.3691 21.0086 21.735 19.4313 21.735 17.4845C21.735 15.5377 23.3691 13.9605 25.386 13.9605C27.403 13.9605 29.0371 15.5377 29.0371 17.4845C29.0371 19.4313 27.403 21.0086 25.386 21.0086Z" />
<path d="M3.65105 18.7789C1.63409 18.7789 0 17.2017 0 15.2549C0 13.3081 1.63409 11.7309 3.65105 11.7309C5.66802 11.7309 7.30211 13.3081 7.30211 15.2549C7.30211 17.2017 5.66802 18.7789 3.65105 18.7789Z" />
<path d="M22.3152 10.7651L17.346 9.43788L14.6847 18.7211C14.4556 19.5204 14.4762 20.1506 14.7467 20.6115C15.0246 21.0466 15.5169 21.3863 16.2234 21.6305C16.9641 21.8561 17.8895 22.0894 18.9996 22.3303L17.924 26.0823C14.5003 25.5843 12.2002 24.6784 11.0237 23.3648C9.85458 22.0254 9.63225 20.0922 10.3567 17.5651L13.0181 8.28193L9.33128 7.29723L10.4845 3.27453L14.1713 4.25922L15.3689 0.0818074L20.0517 0L18.4993 5.41518L23.4684 6.74238L22.3152 10.7651Z" />
<path d="M55.1487 10.5601V14.0342H48.8606V32.668H45.1898V14.0342H38.8698V10.5601H55.1487Z" />
<path d="M66.0344 16.4661C67.8645 16.4661 69.3434 17.0451 70.4712 18.2031C71.5991 19.3612 72.163 20.9508 72.163 22.9721V32.668H68.7157V23.3195C68.7157 22.1404 68.3965 21.2351 67.7581 20.6034C67.1197 19.9718 66.2472 19.6559 65.1407 19.6559C63.9278 19.6559 62.9489 20.0349 62.2041 20.7929C61.4593 21.5298 61.0869 22.6668 61.0869 24.2038V32.668H57.6396V10.5601H61.0869V18.8979C62.1296 17.2767 63.7788 16.4661 66.0344 16.4661Z" />
<path d="M78.588 26.2251C78.8433 27.4253 79.4285 28.3517 80.3436 29.0044C81.2586 29.6361 82.3757 29.9519 83.6951 29.9519C85.5251 29.9519 86.8977 29.2992 87.8127 27.9937L90.6535 29.6361C89.0788 31.9311 86.7487 33.0786 83.6632 33.0786C81.0671 33.0786 78.971 32.2995 77.375 30.7414C75.7791 29.1623 74.9811 27.1726 74.9811 24.7723C74.9811 22.4141 75.7684 20.4455 77.3431 18.8664C78.9178 17.2662 80.9394 16.4661 83.4078 16.4661C85.7486 16.4661 87.6637 17.2767 89.1533 18.8979C90.6641 20.5192 91.4196 22.4878 91.4196 24.8039C91.4196 25.1618 91.377 25.6356 91.2919 26.2251H78.588ZM78.5561 23.4458H87.9404C87.7063 22.1615 87.1637 21.1929 86.3125 20.5402C85.4826 19.8875 84.5037 19.5612 83.3759 19.5612C82.0991 19.5612 81.0351 19.9086 80.1839 20.6034C79.3328 21.2982 78.7901 22.2457 78.5561 23.4458Z" />
<path d="M96.9257 21.2351C96.9257 21.7614 97.2129 22.1825 97.7875 22.4984C98.3833 22.7931 99.0962 23.0563 99.9261 23.2879C100.777 23.4985 101.628 23.7511 102.48 24.0459C103.331 24.3407 104.044 24.846 104.618 25.5619C105.214 26.2567 105.512 27.141 105.512 28.2148C105.512 29.7308 104.916 30.9204 103.724 31.7837C102.554 32.6469 101.075 33.0786 99.2877 33.0786C97.713 33.0786 96.3618 32.7522 95.2339 32.0995C94.1061 31.4468 93.2869 30.5414 92.7761 29.3834L95.7446 27.6779C96.2979 29.1939 97.4789 29.9519 99.2877 29.9519C101.096 29.9519 102.001 29.3623 102.001 28.1832C102.001 27.6779 101.703 27.2673 101.107 26.9515C100.533 26.6357 99.8197 26.3725 98.9685 26.162C98.1386 25.9303 97.298 25.6672 96.4469 25.3724C95.5957 25.0776 94.8722 24.5933 94.2764 23.9196C93.7018 23.2248 93.4145 22.351 93.4145 21.2982C93.4145 19.8454 93.9678 18.6769 95.0743 17.7925C96.2022 16.9082 97.596 16.4661 99.2558 16.4661C100.575 16.4661 101.745 16.7608 102.767 17.3504C103.81 17.9189 104.608 18.719 105.161 19.7507L102.256 21.3614C101.703 20.1612 100.703 19.5612 99.2558 19.5612C98.5961 19.5612 98.0428 19.7086 97.596 20.0033C97.1491 20.2771 96.9257 20.6876 96.9257 21.2351Z" />
<path d="M118.458 16.8766H122.128L116 33.1733C114.468 37.258 111.872 39.1951 108.211 38.9845V35.7947C109.297 35.8578 110.169 35.6262 110.829 35.0999C111.488 34.5945 112.031 33.7944 112.457 32.6996L112.616 32.3837L105.849 16.8766H109.616L114.372 28.3412L118.458 16.8766Z" />
<path d="M126.414 21.2351C126.414 21.7614 126.701 22.1825 127.276 22.4984C127.871 22.7931 128.584 23.0563 129.414 23.2879C130.265 23.4985 131.116 23.7511 131.968 24.0459C132.819 24.3407 133.532 24.846 134.106 25.5619C134.702 26.2567 135 27.141 135 28.2148C135 29.7308 134.404 30.9204 133.213 31.7837C132.042 32.6469 130.563 33.0786 128.776 33.0786C127.201 33.0786 125.85 32.7522 124.722 32.0995C123.594 31.4468 122.775 30.5414 122.264 29.3834L125.233 27.6779C125.786 29.1939 126.967 29.9519 128.776 29.9519C130.584 29.9519 131.489 29.3623 131.489 28.1832C131.489 27.6779 131.191 27.2673 130.595 26.9515C130.021 26.6357 129.308 26.3725 128.457 26.162C127.627 25.9303 126.786 25.6672 125.935 25.3724C125.084 25.0776 124.36 24.5933 123.764 23.9196C123.19 23.2248 122.903 22.351 122.903 21.2982C122.903 19.8454 123.456 18.6769 124.562 17.7925C125.69 16.9082 127.084 16.4661 128.744 16.4661C130.063 16.4661 131.234 16.7608 132.255 17.3504C133.298 17.9189 134.096 18.719 134.649 19.7507L131.744 21.3614C131.191 20.1612 130.191 19.5612 128.744 19.5612C128.084 19.5612 127.531 19.7086 127.084 20.0033C126.637 20.2771 126.414 20.6876 126.414 21.2351Z" />
</svg>
